<?xml version="1.0" encoding="UTF-8"?>
<svg xmlns="http://www.w3.org/2000/svg" xmlns:xlink="http://www.w3.org/1999/xlink" width="200px" height="160px" viewBox="0 0 200 160" version="1.1">
<g id="surface1">
<path style=" stroke:none;fill-rule:nonzero;fill:rgb(0%,0%,0%);fill-opacity:1;" d="M 95.6875 7.761719 C 97.523438 7.921875 100.558594 7.921875 102.476562 7.761719 C 104.3125 7.601562 102.796875 7.441406 99.042969 7.441406 C 95.289062 7.441406 93.769531 7.601562 95.6875 7.761719 Z M 95.6875 7.761719 "/>
<path style=" stroke:none;fill-rule:nonzero;fill:rgb(0%,0%,0%);fill-opacity:1;" d="M 87.699219 8.558594 C 88.179688 8.71875 89.136719 8.71875 89.695312 8.558594 C 90.175781 8.320312 89.777344 8.160156 88.65625 8.160156 C 87.539062 8.160156 87.140625 8.320312 87.699219 8.558594 Z M 87.699219 8.558594 "/>
<path style=" stroke:none;fill-rule:nonzero;fill:rgb(0%,0%,0%);fill-opacity:1;" d="M 108.464844 8.558594 C 108.945312 8.71875 109.902344 8.71875 110.464844 8.558594 C 110.941406 8.320312 110.542969 8.160156 109.425781 8.160156 C 108.308594 8.160156 107.90625 8.320312 108.464844 8.558594 Z M 108.464844 8.558594 "/>
<path style=" stroke:none;fill-rule:nonzero;fill:rgb(0%,0%,0%);fill-opacity:1;" d="M 81.308594 10.160156 C 81.867188 10.398438 82.585938 10.320312 82.828125 10.078125 C 83.148438 9.839844 82.667969 9.601562 81.789062 9.679688 C 80.910156 9.679688 80.671875 9.921875 81.308594 10.160156 Z M 81.308594 10.160156 "/>
<path style=" stroke:none;fill-rule:nonzero;fill:rgb(0%,0%,0%);fill-opacity:1;" d="M 115.65625 10.160156 C 116.214844 10.398438 116.933594 10.320312 117.171875 10.078125 C 117.492188 9.839844 117.011719 9.601562 116.132812 9.679688 C 115.253906 9.679688 115.015625 9.921875 115.65625 10.160156 Z M 115.65625 10.160156 "/>
<path style=" stroke:none;fill-rule:nonzero;fill:rgb(0%,0%,0%);fill-opacity:1;" d="M 122.285156 12.320312 C 123.082031 13.039062 129.394531 16 129.394531 15.601562 C 129.394531 15.199219 123.402344 12 122.523438 12 C 122.203125 12 122.125 12.160156 122.285156 12.320312 Z M 122.285156 12.320312 "/>
<path style=" stroke:none;fill-rule:nonzero;fill:rgb(0%,0%,0%);fill-opacity:1;" d="M 72.285156 13.601562 C 72.042969 14.078125 72.363281 14.160156 73.003906 13.921875 C 74.441406 13.359375 74.679688 12.800781 73.5625 12.800781 C 73.082031 12.800781 72.523438 13.121094 72.285156 13.601562 Z M 72.285156 13.601562 "/>
<path style=" stroke:none;fill-rule:nonzero;fill:rgb(0%,0%,0%);fill-opacity:1;" d="M 130.191406 16.238281 C 130.191406 16.480469 131.148438 17.199219 132.269531 18 C 133.464844 18.71875 134.105469 18.960938 133.867188 18.480469 C 133.308594 17.601562 130.191406 15.679688 130.191406 16.238281 Z M 130.191406 16.238281 "/>
<path style=" stroke:none;fill-rule:nonzero;fill:rgb(0%,0%,0%);fill-opacity:1;" d="M 61.820312 20.480469 L 58.707031 23.28125 L 62.140625 20.71875 C 65.175781 18.320312 65.972656 17.601562 65.253906 17.601562 C 65.097656 17.601562 63.578125 18.878906 61.820312 20.480469 Z M 61.820312 20.480469 "/>
<path style=" stroke:none;fill-rule:nonzero;fill:rgb(0%,0%,0%);fill-opacity:1;" d="M 136.183594 20.800781 C 136.980469 21.679688 137.78125 22.398438 138.019531 22.398438 C 138.257812 22.398438 137.78125 21.679688 136.980469 20.800781 C 136.183594 19.921875 135.382812 19.199219 135.144531 19.199219 C 134.902344 19.199219 135.382812 19.921875 136.183594 20.800781 Z M 136.183594 20.800781 "/>
<path style=" stroke:none;fill-rule:nonzero;fill:rgb(0%,0%,0%);fill-opacity:1;" d="M 88.257812 24.640625 C 84.746094 25.839844 78.992188 28.238281 75.480469 30 C 67.652344 33.921875 65.496094 37.199219 64.9375 45.519531 C 64.535156 50.480469 64.777344 51.199219 67.8125 57.28125 C 69.648438 60.878906 71.085938 64.078125 71.085938 64.320312 C 71.085938 64.640625 71.484375 65.28125 71.964844 65.839844 C 72.363281 66.398438 75.558594 71.121094 78.992188 76.398438 C 82.347656 81.679688 86.582031 87.519531 88.339844 89.441406 L 91.613281 92.800781 L 100.320312 89.121094 C 105.113281 87.039062 112.539062 83.921875 116.933594 82.078125 C 126.117188 78.238281 125.957031 78.480469 126.996094 66.878906 C 128.832031 47.199219 127.796875 42.480469 121.246094 39.121094 C 119.488281 38.238281 117.972656 37.601562 117.8125 37.761719 C 117.730469 37.921875 118.53125 43.28125 119.648438 49.679688 C 121.566406 60.71875 121.566406 65.28125 119.808594 63.519531 C 119.328125 63.039062 117.890625 56.480469 116.535156 48.800781 C 113.976562 33.761719 112.9375 30.800781 109.105469 27.039062 C 103.992188 21.921875 98.5625 21.28125 88.257812 24.640625 Z M 88.257812 24.640625 "/>
<path style=" stroke:none;fill-rule:nonzero;fill:rgb(0%,0%,0%);fill-opacity:1;" d="M 141.375 25.199219 C 142.414062 26.320312 143.449219 27.199219 143.609375 27.199219 C 143.851562 27.199219 143.210938 26.320312 142.171875 25.199219 C 141.132812 24.078125 140.097656 23.199219 139.9375 23.199219 C 139.695312 23.199219 140.335938 24.078125 141.375 25.199219 Z M 141.375 25.199219 "/>
<path style=" stroke:none;fill-rule:nonzero;fill:rgb(0%,0%,0%);fill-opacity:1;" d="M 52.636719 29.359375 L 50.71875 31.601562 L 52.957031 29.679688 C 54.953125 27.839844 55.511719 27.199219 54.871094 27.199219 C 54.710938 27.199219 53.753906 28.160156 52.636719 29.359375 Z M 52.636719 29.359375 "/>
<path style=" stroke:none;fill-rule:nonzero;fill:rgb(0%,0%,0%);fill-opacity:1;" d="M 144.96875 29.601562 C 145.765625 30.480469 146.566406 31.199219 146.804688 31.199219 C 147.042969 31.199219 146.566406 30.480469 145.765625 29.601562 C 144.96875 28.71875 144.167969 28 143.929688 28 C 143.691406 28 144.167969 28.71875 144.96875 29.601562 Z M 144.96875 29.601562 "/>
<path style=" stroke:none;fill-rule:nonzero;fill:rgb(0%,0%,0%);fill-opacity:1;" d="M 148.164062 33.921875 C 148.960938 35.039062 149.679688 36 149.921875 36 C 150.480469 36 148.5625 32.878906 147.683594 32.320312 C 147.203125 32.078125 147.445312 32.71875 148.164062 33.921875 Z M 148.164062 33.921875 "/>
<path style=" stroke:none;fill-rule:nonzero;fill:rgb(0%,0%,0%);fill-opacity:1;" d="M 45.527344 40.078125 C 44.570312 41.921875 43.929688 43.519531 44.089844 43.679688 C 44.328125 43.839844 45.207031 42.320312 46.167969 40.398438 C 48.324219 35.921875 47.761719 35.601562 45.527344 40.078125 Z M 45.527344 40.078125 "/>
<path style=" stroke:none;fill-rule:nonzero;fill:rgb(0%,0%,0%);fill-opacity:1;" d="M 151.917969 40.398438 C 152.875 42.320312 153.753906 43.839844 153.992188 43.679688 C 154.3125 43.28125 151.117188 36.800781 150.558594 36.800781 C 150.320312 36.800781 150.957031 38.398438 151.917969 40.398438 Z M 151.917969 40.398438 "/>
<path style=" stroke:none;fill-rule:nonzero;fill:rgb(0%,0%,0%);fill-opacity:1;" d="M 156.628906 52.480469 C 156.628906 53.359375 156.867188 53.601562 157.109375 52.960938 C 157.347656 52.398438 157.269531 51.679688 157.027344 51.441406 C 156.789062 51.121094 156.550781 51.601562 156.628906 52.480469 Z M 156.628906 52.480469 "/>
<path style=" stroke:none;fill-rule:nonzero;fill:rgb(0%,0%,0%);fill-opacity:1;" d="M 40.097656 56 C 40.097656 57.121094 40.253906 57.519531 40.496094 56.960938 C 40.65625 56.480469 40.65625 55.519531 40.496094 54.960938 C 40.253906 54.480469 40.097656 54.878906 40.097656 56 Z M 40.097656 56 "/>
<path style=" stroke:none;fill-rule:nonzero;fill:rgb(0%,0%,0%);fill-opacity:1;" d="M 157.429688 56.480469 C 157.429688 57.359375 157.667969 57.601562 157.90625 56.960938 C 158.148438 56.398438 158.066406 55.679688 157.828125 55.441406 C 157.585938 55.121094 157.347656 55.601562 157.429688 56.480469 Z M 157.429688 56.480469 "/>
<path style=" stroke:none;fill-rule:nonzero;fill:rgb(0%,0%,0%);fill-opacity:1;" d="M 39.457031 67.199219 C 39.457031 71.359375 39.535156 73.121094 39.695312 70.960938 C 39.855469 68.878906 39.855469 65.519531 39.695312 63.359375 C 39.535156 61.28125 39.457031 63.039062 39.457031 67.199219 Z M 39.457031 67.199219 "/>
<path style=" stroke:none;fill-rule:nonzero;fill:rgb(0%,0%,0%);fill-opacity:1;" d="M 158.386719 62.800781 C 158.386719 64.558594 158.546875 65.199219 158.707031 64.160156 C 158.867188 63.199219 158.867188 61.761719 158.707031 60.960938 C 158.464844 60.238281 158.308594 61.039062 158.386719 62.800781 Z M 158.386719 62.800781 "/>
<path style=" stroke:none;fill-rule:nonzero;fill:rgb(0%,0%,0%);fill-opacity:1;" d="M 158.386719 73.199219 C 158.386719 74.960938 158.546875 75.601562 158.707031 74.558594 C 158.867188 73.601562 158.867188 72.160156 158.707031 71.359375 C 158.464844 70.640625 158.308594 71.441406 158.386719 73.199219 Z M 158.386719 73.199219 "/>
<path style=" stroke:none;fill-rule:nonzero;fill:rgb(0%,0%,0%);fill-opacity:1;" d="M 40.097656 78 C 40.097656 79.28125 40.253906 79.761719 40.496094 78.960938 C 40.65625 78.238281 40.65625 77.121094 40.496094 76.558594 C 40.253906 76.078125 40.097656 76.640625 40.097656 78 Z M 40.097656 78 "/>
<path style=" stroke:none;fill-rule:nonzero;fill:rgb(0%,0%,0%);fill-opacity:1;" d="M 157.429688 78.878906 C 157.429688 79.761719 157.667969 80 157.90625 79.359375 C 158.148438 78.800781 158.066406 78.078125 157.828125 77.839844 C 157.585938 77.519531 157.347656 78 157.429688 78.878906 Z M 157.429688 78.878906 "/>
<path style=" stroke:none;fill-rule:nonzero;fill:rgb(0%,0%,0%);fill-opacity:1;" d="M 156.628906 82.078125 C 156.628906 82.960938 156.867188 83.199219 157.109375 82.558594 C 157.347656 82 157.269531 81.28125 157.027344 81.039062 C 156.789062 80.71875 156.550781 81.199219 156.628906 82.078125 Z M 156.628906 82.078125 "/>
<path style=" stroke:none;fill-rule:nonzero;fill:rgb(0%,0%,0%);fill-opacity:1;" d="M 121.40625 83.199219 C 120.765625 83.601562 120.605469 84 121.007812 84 C 121.484375 84 122.363281 83.601562 123.003906 83.199219 C 123.640625 82.800781 123.882812 82.398438 123.402344 82.398438 C 123.003906 82.398438 122.042969 82.800781 121.40625 83.199219 Z M 121.40625 83.199219 "/>
<path style=" stroke:none;fill-rule:nonzero;fill:rgb(0%,0%,0%);fill-opacity:1;" d="M 113.019531 90.480469 L 98.640625 96.71875 L 98.882812 100 C 99.121094 103.921875 97.203125 104.480469 95.925781 100.71875 C 95.289062 98.800781 95.367188 97.761719 96.246094 96 L 97.445312 93.679688 L 94.96875 94.558594 C 93.609375 95.039062 92.332031 95.921875 92.09375 96.558594 C 91.535156 98 95.765625 109.039062 97.84375 111.441406 C 99.441406 113.28125 99.441406 113.359375 101.757812 111.921875 L 104.152344 110.480469 L 102.078125 109.679688 C 99.121094 108.558594 97.203125 105.679688 98.402344 104.160156 C 99.203125 103.28125 99.601562 103.359375 100.878906 105.121094 C 101.675781 106.238281 102.796875 107.199219 103.273438 107.199219 C 103.832031 107.199219 110.703125 104.320312 118.609375 100.960938 C 133.625 94.398438 133.386719 94.640625 132.429688 90.320312 C 132.269531 89.519531 131.710938 88.480469 131.308594 87.921875 C 130.832031 87.28125 130.191406 86.160156 129.953125 85.359375 C 129.632812 84.640625 128.992188 84 128.433594 84.078125 C 127.875 84.078125 120.925781 86.960938 113.019531 90.480469 Z M 105.671875 98.480469 C 107.269531 100.640625 106.46875 103.121094 104.152344 103.679688 C 101.757812 104.320312 99.839844 102.800781 99.839844 100.320312 C 99.839844 97.039062 103.832031 95.761719 105.671875 98.480469 Z M 105.671875 98.480469 "/>
<path style=" stroke:none;fill-rule:nonzero;fill:rgb(0%,0%,0%);fill-opacity:1;" d="M 155.832031 84.558594 C 155.75 85.039062 155.511719 86.160156 155.273438 86.960938 C 154.871094 88.320312 154.871094 88.320312 155.75 86.960938 C 156.230469 86.160156 156.46875 85.121094 156.230469 84.558594 C 155.992188 83.839844 155.832031 83.839844 155.832031 84.558594 Z M 155.832031 84.558594 "/>
<path style=" stroke:none;fill-rule:nonzero;fill:rgb(0%,0%,0%);fill-opacity:1;" d="M 115.816406 85.601562 C 115.175781 86 115.015625 86.398438 115.414062 86.398438 C 115.894531 86.398438 116.773438 86 117.414062 85.601562 C 118.050781 85.199219 118.289062 84.800781 117.8125 84.800781 C 117.414062 84.800781 116.453125 85.199219 115.816406 85.601562 Z M 115.816406 85.601562 "/>
<path style=" stroke:none;fill-rule:nonzero;fill:rgb(0%,0%,0%);fill-opacity:1;" d="M 42.332031 86.800781 C 42.332031 87.199219 42.730469 88.160156 43.132812 88.800781 C 43.53125 89.441406 43.929688 89.601562 43.929688 89.199219 C 43.929688 88.71875 43.53125 87.839844 43.132812 87.199219 C 42.730469 86.558594 42.332031 86.320312 42.332031 86.800781 Z M 42.332031 86.800781 "/>
<path style=" stroke:none;fill-rule:nonzero;fill:rgb(0%,0%,0%);fill-opacity:1;" d="M 109.902344 87.921875 C 109.585938 88.320312 110.144531 88.480469 111.023438 88.238281 C 112.859375 87.761719 113.097656 87.199219 111.5 87.199219 C 110.863281 87.199219 110.144531 87.519531 109.902344 87.921875 Z M 109.902344 87.921875 "/>
<path style=" stroke:none;fill-rule:nonzero;fill:rgb(0%,0%,0%);fill-opacity:1;" d="M 153.832031 90 C 153.113281 92.078125 153.273438 92.558594 154.234375 90.960938 C 154.710938 90.160156 154.953125 89.28125 154.710938 89.121094 C 154.550781 88.878906 154.152344 89.28125 153.832031 90 Z M 153.832031 90 "/>
<path style=" stroke:none;fill-rule:nonzero;fill:rgb(0%,0%,0%);fill-opacity:1;" d="M 43.929688 90.71875 C 43.929688 91.601562 47.125 97.601562 47.523438 97.601562 C 47.761719 97.601562 47.203125 96.078125 46.246094 94.160156 C 44.410156 90.558594 43.929688 89.839844 43.929688 90.71875 Z M 43.929688 90.71875 "/>
<path style=" stroke:none;fill-rule:nonzero;fill:rgb(0%,0%,0%);fill-opacity:1;" d="M 100.640625 92 C 100 92.398438 99.839844 92.800781 100.238281 92.800781 C 100.71875 92.800781 101.597656 92.398438 102.238281 92 C 102.875 91.601562 103.113281 91.199219 102.636719 91.199219 C 102.238281 91.199219 101.277344 91.601562 100.640625 92 Z M 100.640625 92 "/>
<path style=" stroke:none;fill-rule:nonzero;fill:rgb(0%,0%,0%);fill-opacity:1;" d="M 150.160156 97.601562 C 149.679688 98.480469 149.519531 99.199219 149.679688 99.199219 C 149.921875 99.199219 150.480469 98.480469 150.957031 97.601562 C 151.4375 96.71875 151.597656 96 151.4375 96 C 151.199219 96 150.640625 96.71875 150.160156 97.601562 Z M 150.160156 97.601562 "/>
<path style=" stroke:none;fill-rule:nonzero;fill:rgb(0%,0%,0%);fill-opacity:1;" d="M 49.203125 100.71875 C 50.957031 103.921875 59.984375 113.28125 63.738281 115.921875 C 67.890625 118.800781 66.691406 117.441406 61.34375 113.039062 C 58.546875 110.878906 54.710938 106.960938 52.796875 104.320312 C 48.164062 98.238281 47.363281 97.359375 49.203125 100.71875 Z M 49.203125 100.71875 "/>
<path style=" stroke:none;fill-rule:nonzero;fill:rgb(0%,0%,0%);fill-opacity:1;" d="M 127.796875 100 C 127.15625 100.398438 126.996094 100.800781 127.394531 100.800781 C 127.875 100.800781 128.753906 100.398438 129.394531 100 C 130.03125 99.601562 130.273438 99.199219 129.792969 99.199219 C 129.394531 99.199219 128.433594 99.601562 127.796875 100 Z M 127.796875 100 "/>
<path style=" stroke:none;fill-rule:nonzero;fill:rgb(0%,0%,0%);fill-opacity:1;" d="M 145.765625 104 C 144.167969 106.160156 140.816406 109.839844 138.339844 112.078125 C 135.703125 114.480469 135.144531 115.199219 136.980469 113.761719 C 141.535156 110.320312 150.640625 100 149.121094 100 C 148.882812 100 147.363281 101.761719 145.765625 104 Z M 145.765625 104 "/>
<path style=" stroke:none;fill-rule:nonzero;fill:rgb(0%,0%,0%);fill-opacity:1;" d="M 122.203125 102.398438 C 121.566406 102.800781 121.40625 103.199219 121.804688 103.199219 C 122.285156 103.199219 123.164062 102.800781 123.800781 102.398438 C 124.441406 102 124.679688 101.601562 124.203125 101.601562 C 123.800781 101.601562 122.84375 102 122.203125 102.398438 Z M 122.203125 102.398438 "/>
<path style=" stroke:none;fill-rule:nonzero;fill:rgb(0%,0%,0%);fill-opacity:1;" d="M 111.023438 107.199219 C 110.304688 107.679688 110.222656 108 110.78125 108 C 111.261719 108 111.980469 107.601562 112.21875 107.199219 C 112.859375 106.238281 112.539062 106.238281 111.023438 107.199219 Z M 111.023438 107.199219 "/>
<path style=" stroke:none;fill-rule:nonzero;fill:rgb(0%,0%,0%);fill-opacity:1;" d="M 105.429688 109.601562 C 104.792969 110 104.632812 110.398438 105.03125 110.398438 C 105.511719 110.398438 106.390625 110 107.027344 109.601562 C 107.667969 109.199219 107.90625 108.800781 107.429688 108.800781 C 107.027344 108.800781 106.070312 109.199219 105.429688 109.601562 Z M 105.429688 109.601562 "/>
<path style=" stroke:none;fill-rule:nonzero;fill:rgb(0%,0%,0%);fill-opacity:1;" d="M 129.953125 117.921875 C 126.117188 120.238281 125.078125 121.359375 128.195312 119.761719 C 130.671875 118.480469 134.105469 116.078125 133.386719 116.078125 C 133.148438 116.078125 131.628906 116.878906 129.953125 117.921875 Z M 129.953125 117.921875 "/>
<path style=" stroke:none;fill-rule:nonzero;fill:rgb(0%,0%,0%);fill-opacity:1;" d="M 67.09375 117.921875 C 67.09375 118.160156 67.8125 118.71875 68.691406 119.199219 C 69.570312 119.679688 70.289062 119.839844 70.289062 119.679688 C 70.289062 119.441406 69.570312 118.878906 68.691406 118.398438 C 67.8125 117.921875 67.09375 117.761719 67.09375 117.921875 Z M 67.09375 117.921875 "/>
<path style=" stroke:none;fill-rule:nonzero;fill:rgb(0%,0%,0%);fill-opacity:1;" d="M 122.203125 122 C 121.085938 122.640625 120.605469 123.121094 121.007812 123.121094 C 121.484375 123.121094 122.683594 122.640625 123.800781 122 C 124.921875 121.359375 125.480469 120.878906 125 120.878906 C 124.601562 120.878906 123.324219 121.359375 122.203125 122 Z M 122.203125 122 "/>
<path style=" stroke:none;fill-rule:nonzero;fill:rgb(0%,0%,0%);fill-opacity:1;" d="M 75.078125 122.398438 C 75.71875 122.800781 76.675781 123.199219 77.078125 123.199219 C 77.554688 123.199219 77.316406 122.800781 76.675781 122.398438 C 76.039062 122 75.160156 121.601562 74.679688 121.601562 C 74.28125 121.601562 74.441406 122 75.078125 122.398438 Z M 75.078125 122.398438 "/>
<path style=" stroke:none;fill-rule:nonzero;fill:rgb(0%,0%,0%);fill-opacity:1;" d="M 83.707031 125.359375 C 84.265625 125.601562 84.984375 125.519531 85.222656 125.28125 C 85.542969 125.039062 85.0625 124.800781 84.183594 124.878906 C 83.308594 124.878906 83.066406 125.121094 83.707031 125.359375 Z M 83.707031 125.359375 "/>
<path style=" stroke:none;fill-rule:nonzero;fill:rgb(0%,0%,0%);fill-opacity:1;" d="M 113.257812 125.359375 C 113.816406 125.601562 114.535156 125.519531 114.777344 125.28125 C 115.097656 125.039062 114.617188 124.800781 113.738281 124.878906 C 112.859375 124.878906 112.621094 125.121094 113.257812 125.359375 Z M 113.257812 125.359375 "/>
<path style=" stroke:none;fill-rule:nonzero;fill:rgb(0%,0%,0%);fill-opacity:1;" d="M 86.902344 126.160156 C 87.378906 126.320312 88.339844 126.320312 88.898438 126.160156 C 89.378906 125.921875 88.976562 125.761719 87.859375 125.761719 C 86.742188 125.761719 86.34375 125.921875 86.902344 126.160156 Z M 86.902344 126.160156 "/>
<path style=" stroke:none;fill-rule:nonzero;fill:rgb(0%,0%,0%);fill-opacity:1;" d="M 109.265625 126.160156 C 109.746094 126.320312 110.703125 126.320312 111.261719 126.160156 C 111.742188 125.921875 111.34375 125.761719 110.222656 125.761719 C 109.105469 125.761719 108.707031 125.921875 109.265625 126.160156 Z M 109.265625 126.160156 "/>
<path style=" stroke:none;fill-rule:nonzero;fill:rgb(0%,0%,0%);fill-opacity:1;" d="M 92.09375 126.960938 C 93.289062 127.121094 95.046875 127.121094 96.085938 126.960938 C 97.042969 126.800781 96.085938 126.640625 93.851562 126.640625 C 91.691406 126.640625 90.816406 126.800781 92.09375 126.960938 Z M 92.09375 126.960938 "/>
<path style=" stroke:none;fill-rule:nonzero;fill:rgb(0%,0%,0%);fill-opacity:1;" d="M 102.476562 126.960938 C 103.675781 127.121094 105.429688 127.121094 106.46875 126.960938 C 107.429688 126.800781 106.46875 126.640625 104.234375 126.640625 C 102.078125 126.640625 101.199219 126.800781 102.476562 126.960938 Z M 102.476562 126.960938 "/>
<path style=" stroke:none;fill-rule:nonzero;fill:rgb(0%,0%,0%);fill-opacity:1;" d="M 7.988281 145.601562 L 7.988281 153.601562 L 15.097656 153.601562 C 19.808594 153.601562 22.445312 153.28125 23.003906 152.558594 C 23.484375 152.078125 23.800781 148.960938 23.800781 145.761719 C 23.800781 138.078125 23.324219 137.601562 14.695312 137.601562 L 7.988281 137.601562 Z M 20.765625 142.398438 C 20.765625 143.839844 20.207031 144 15.972656 144 C 11.742188 144 11.183594 143.839844 11.183594 142.398438 C 11.183594 140.960938 11.742188 140.800781 15.972656 140.800781 C 20.207031 140.800781 20.765625 140.960938 20.765625 142.398438 Z M 20.765625 148.800781 C 20.765625 150.238281 20.207031 150.398438 15.972656 150.398438 C 11.742188 150.398438 11.183594 150.238281 11.183594 148.800781 C 11.183594 147.359375 11.742188 147.199219 15.972656 147.199219 C 20.207031 147.199219 20.765625 147.359375 20.765625 148.800781 Z M 20.765625 148.800781 "/>
<path style=" stroke:none;fill-rule:nonzero;fill:rgb(0%,0%,0%);fill-opacity:1;" d="M 30.191406 138.480469 C 28.992188 139.121094 28.753906 140.398438 28.753906 145.441406 C 28.753906 149.199219 29.152344 152.078125 29.710938 152.640625 C 30.992188 153.921875 42.492188 153.921875 43.769531 152.640625 C 45.289062 151.121094 45.046875 140.398438 43.449219 138.878906 C 42.011719 137.359375 32.429688 137.121094 30.191406 138.480469 Z M 41.535156 145.601562 L 41.535156 150.398438 L 31.949219 150.398438 L 31.949219 140.800781 L 41.535156 140.800781 Z M 41.535156 145.601562 "/>
<path style=" stroke:none;fill-rule:nonzero;fill:rgb(0%,0%,0%);fill-opacity:1;" d="M 49.519531 139.199219 C 49.519531 140 50.558594 142 51.917969 143.441406 L 54.234375 146.160156 L 51.917969 148.398438 C 49.359375 150.878906 48.722656 153.601562 50.71875 153.601562 C 51.359375 153.601562 53.195312 152.238281 54.710938 150.558594 L 57.507812 147.601562 L 60.304688 150.558594 C 61.820312 152.238281 63.65625 153.601562 64.296875 153.601562 C 66.292969 153.601562 65.65625 151.039062 62.9375 148.238281 L 60.382812 145.601562 L 62.9375 142.960938 C 65.894531 139.921875 66.292969 137.601562 63.898438 137.601562 C 63.019531 137.601562 62.300781 138.078125 62.300781 138.640625 C 62.300781 139.199219 61.261719 140.71875 59.902344 142 L 57.507812 144.320312 L 55.113281 142 C 53.832031 140.71875 52.714844 139.199219 52.714844 138.640625 C 52.714844 138.078125 51.996094 137.601562 51.117188 137.601562 C 50.078125 137.601562 49.519531 138.160156 49.519531 139.199219 Z M 49.519531 139.199219 "/>
<path style=" stroke:none;fill-rule:nonzero;fill:rgb(0%,0%,0%);fill-opacity:1;" d="M 70.289062 139.199219 C 70.289062 140.558594 70.847656 140.800781 73.484375 140.800781 L 76.675781 140.800781 L 76.675781 150.398438 L 73.484375 150.398438 C 70.847656 150.398438 70.289062 150.640625 70.289062 152 C 70.289062 153.519531 70.847656 153.601562 78.273438 153.601562 C 85.703125 153.601562 86.261719 153.519531 86.261719 152 C 86.261719 150.640625 85.703125 150.398438 83.066406 150.398438 L 79.871094 150.398438 L 79.871094 140.800781 L 83.066406 140.800781 C 85.703125 140.800781 86.261719 140.558594 86.261719 139.199219 C 86.261719 137.679688 85.703125 137.601562 78.273438 137.601562 C 70.847656 137.601562 70.289062 137.679688 70.289062 139.199219 Z M 70.289062 139.199219 "/>
<path style=" stroke:none;fill-rule:nonzero;fill:rgb(0%,0%,0%);fill-opacity:1;" d="M 91.613281 138.160156 C 91.292969 138.398438 91.054688 142 91.054688 146.160156 C 91.054688 153.039062 91.132812 153.601562 92.652344 153.601562 C 94.089844 153.601562 94.25 153.039062 94.25 148.640625 L 94.25 143.679688 L 99.28125 148.640625 C 106.390625 155.761719 107.027344 155.519531 107.027344 145.601562 C 107.027344 138.160156 106.949219 137.601562 105.429688 137.601562 C 103.992188 137.601562 103.832031 138.160156 103.832031 142.960938 L 103.832031 148.320312 L 98.402344 142.960938 C 92.890625 137.441406 92.492188 137.199219 91.613281 138.160156 Z M 91.613281 138.160156 "/>
<path style=" stroke:none;fill-rule:nonzero;fill:rgb(0%,0%,0%);fill-opacity:1;" d="M 133.945312 138.160156 C 133.066406 138.960938 133.308594 150.320312 134.183594 152.078125 C 134.902344 153.441406 135.941406 153.601562 142.171875 153.601562 C 148.800781 153.601562 149.359375 153.519531 149.359375 152 C 149.359375 150.558594 148.800781 150.398438 142.972656 150.398438 L 136.582031 150.398438 L 136.582031 144 C 136.582031 139.199219 136.34375 137.601562 135.542969 137.601562 C 134.902344 137.601562 134.183594 137.839844 133.945312 138.160156 Z M 133.945312 138.160156 "/>
<path style=" stroke:none;fill-rule:nonzero;fill:rgb(0%,0%,0%);fill-opacity:1;" d="M 155.429688 139.359375 C 153.832031 141.601562 153.675781 150.320312 155.191406 152.320312 C 155.992188 153.441406 157.269531 153.601562 162.9375 153.441406 L 169.726562 153.199219 L 169.96875 146.558594 C 170.128906 142.320312 169.886719 139.441406 169.25 138.71875 C 168.609375 137.921875 166.535156 137.601562 162.460938 137.601562 C 157.347656 137.601562 156.46875 137.839844 155.429688 139.359375 Z M 166.933594 145.601562 L 166.933594 150.398438 L 157.347656 150.398438 L 157.347656 146.160156 C 157.347656 143.761719 157.585938 141.601562 157.90625 141.359375 C 158.148438 141.039062 160.304688 140.800781 162.699219 140.800781 L 166.933594 140.800781 Z M 166.933594 145.601562 "/>
<path style=" stroke:none;fill-rule:nonzero;fill:rgb(0%,0%,0%);fill-opacity:1;" d="M 175.480469 138.160156 C 175.160156 138.398438 174.921875 140.640625 174.921875 143.039062 C 174.921875 147.121094 175.078125 147.601562 178.273438 150.480469 C 180.191406 152.238281 182.347656 153.601562 183.148438 153.601562 C 183.945312 153.601562 186.023438 152.398438 187.699219 151.039062 C 190.816406 148.480469 190.894531 148.320312 190.894531 142.960938 C 190.894531 138.160156 190.734375 137.519531 189.535156 137.761719 C 188.417969 137.921875 188.019531 138.960938 187.859375 142.558594 C 187.621094 146.558594 187.300781 147.359375 185.304688 148.800781 L 183.066406 150.398438 L 180.589844 148.320312 C 178.355469 146.480469 178.113281 145.761719 178.113281 141.921875 C 178.113281 138.878906 177.796875 137.601562 177.078125 137.601562 C 176.4375 137.601562 175.71875 137.839844 175.480469 138.160156 Z M 175.480469 138.160156 "/>
<path style=" stroke:none;fill-rule:nonzero;fill:rgb(0%,0%,0%);fill-opacity:1;" d="M 112.378906 138.960938 C 111.421875 139.921875 111.742188 151.601562 112.78125 152.640625 C 114.058594 153.921875 124.761719 153.921875 126.039062 152.640625 C 126.597656 152.078125 126.996094 150.160156 126.996094 148.238281 L 126.996094 144.800781 L 122.605469 144.800781 C 119.328125 144.800781 118.210938 145.121094 118.210938 145.921875 C 118.210938 146.71875 119.25 147.199219 121.246094 147.359375 C 123.5625 147.519531 124.203125 147.921875 124.203125 149.199219 C 124.203125 150.640625 123.5625 150.800781 119.25 151.039062 L 114.21875 151.28125 L 114.21875 140.800781 L 120.605469 140.800781 C 125.71875 140.800781 126.996094 140.558594 126.996094 139.601562 C 126.996094 138.640625 125.71875 138.398438 119.96875 138.398438 C 116.054688 138.398438 112.621094 138.640625 112.378906 138.960938 Z M 112.378906 138.960938 "/>
</g>
</svg>
